<?xml version="1.0" encoding="UTF-8" standalone="no"?>
<svg
   xmlns:dc="http://purl.org/dc/elements/1.1/"
   xmlns:cc="http://creativecommons.org/ns#"
   xmlns:rdf="http://www.w3.org/1999/02/22-rdf-syntax-ns#"
   xmlns:svg="http://www.w3.org/2000/svg"
   xmlns="http://www.w3.org/2000/svg"
   version="1.1"
   id="svg8726"
   viewBox="0 0 762.02042 95.252552"
   height="26.882387mm"
   width="215.0591mm">
  <defs
     id="defs8728">
    <clipPath
       id="clip1">
      <path
         id="path7"
         d="m 65,172 241.86328,0 0,37 L 65,209 Z m 0,0" />
    </clipPath>
  </defs>
  <metadata
     id="metadata8731">
    <rdf:RDF>
      <cc:Work
         rdf:about="">
        <dc:format>image/svg+xml</dc:format>
        <dc:type
           rdf:resource="http://purl.org/dc/dcmitype/StillImage" />
        <dc:title></dc:title>
      </cc:Work>
    </rdf:RDF>
  </metadata>
  <g
     transform="translate(-86.461388,-578.13452)"
     id="layer1">
    <rect
       y="578.13452"
       x="86.461388"
       height="95.252556"
       width="762.02045"
       id="rect9274"
       style="opacity:0.9;fill:none;fill-opacity:1;stroke:none;stroke-width:0.83764571;stroke-linejoin:bevel;stroke-miterlimit:4;stroke-dasharray:none;stroke-opacity:1" />
    <g
       transform="matrix(0.96187034,0,0,0.96187034,41.370341,10.947948)"
       id="g9369">
      <path
         id="path2510"
         d="m 163.74001,681.04345 -21.79637,0 13.61405,-83.69852 21.79634,0 -13.61402,83.69852"
         style="fill:#0063b0;fill-opacity:1;fill-rule:nonzero;stroke:none" />
      <path
         id="path2512"
         d="m 123.62026,597.34493 -20.78222,57.56794 -2.45887,-12.39159 -7.334918,-37.63306 c 0,0 -0.87517,-7.54329 -10.33555,-7.54329 l -34.3407,0 -0.40286,1.43086 c 0,0 10.50224,2.16714 22.79655,9.5576 l 18.93464,72.71006 22.699308,0 34.67411,-83.69852 -23.44949,0"
         style="fill:#0063b0;fill-opacity:1;fill-rule:nonzero;stroke:none" />
      <path
         id="path2514"
         d="m 271.04083,651.43988 11.43303,-31.32617 6.44581,31.32617 z m 23.97739,29.60357 20.0043,0 -17.44821,-83.69852 -17.51764,0 c -8.08508,0 -10.05772,6.23744 -10.05772,6.23744 l -32.4931,77.46108 22.69933,0 4.55653,-12.43321 27.68649,0 2.57002,12.43321"
         style="fill:#0063b0;fill-opacity:1;fill-rule:nonzero;stroke:none" />
      <path
         id="path2516"
         d="m 239.20065,617.47424 3.11178,-17.97606 c 0,0 -9.59928,-3.63968 -19.60141,-3.63968 -10.80788,0 -36.49396,4.72322 -36.49396,27.7004 0,21.62962 30.14536,21.89359 30.14536,33.24325 0,11.36355 -27.03358,9.33534 -35.96606,2.16711 l -3.23682,18.78183 c 0,0 9.72432,4.73711 24.60251,4.73711 14.86431,0 37.31359,-7.69608 37.31359,-28.6589 0,-21.75469 -30.42321,-23.7829 -30.42321,-33.24328 0,-9.46035 21.22679,-8.25177 30.54822,-3.11178"
         style="fill:#0063b0;fill-opacity:1;fill-rule:nonzero;stroke:none" />
      <path
         id="path2518"
         d="m 100.37917,642.52128 -7.334918,-37.63306 c 0,0 -0.87517,-7.54329 -10.33555,-7.54329 l -34.3407,0 -0.40286,1.43086 c 0,0 16.51743,3.4174 32.34029,16.2257 15.14212,12.25263 20.073738,27.51979 20.073738,27.51979"
         style="fill:#f8a330;fill-opacity:1;fill-rule:nonzero;stroke:none" />
    </g>
    <g
       data-name="&lt;Group&gt;"
       id="_Group_"
       transform="matrix(1.2940486,0,0,1.2940486,382.75842,559.33991)">
      <rect
         style="fill:#ff5f00"
         id="rect17"
         height="56.610001"
         width="31.5"
         y="22.85"
         x="57.650002"
         class="cls-3" />
      <path
         style="fill:#eb001b"
         d="M 59.65,51.16 A 35.94,35.94 0 0 1 73.4,22.85 36,36 0 1 0 73.4,79.46 35.94,35.94 0 0 1 59.65,51.16 Z"
         class="cls-4"
         data-name="&lt;Path&gt;"
         id="_Path_" />
      <path
         style="fill:#f79e1b"
         id="path20"
         d="m 131.65,51.16 a 36,36 0 0 1 -58.25,28.3 36,36 0 0 0 0,-56.61 36,36 0 0 1 58.25,28.3 z"
         class="cls-5" />
      <path
         style="fill:#f79e1b"
         id="path22"
         d="m 128.21,73.46 0,-1.16 0.47,0 0,-0.24 -1.19,0 0,0.24 0.51,0 0,1.16 z m 2.31,0 0,-1.4 -0.36,0 -0.42,1 -0.42,-1 -0.32,0 0,1.4 0.26,0 0,-1.05 0.39,0.91 0.27,0 0.39,-0.91 0,1.06 z"
         class="cls-5" />
    </g>
    <g
       transform="matrix(1.4990597,0,0,1.4990597,-372.74244,-312.76788)"
       id="g13438">
      <g
         id="g13433"
         transform="matrix(1.4133008,0,0,1.4133008,-363.31623,-283.85486)">
        <g
           transform="matrix(0.38588205,0,0,0.38588205,714.49337,583.53674)"
           style="clip-rule:nonzero"
           clip-path="url(#clip1)"
           id="g14">
          <path
             style="fill:#1775c5;fill-opacity:1;fill-rule:nonzero;stroke:none"
             d="m 95.191406,180.82812 0,-8.08593 -29.367187,0 0,36.0625 29.367187,0 0,-8.08985 -20.195312,0 0,-6.13281 19.730468,0 0,-7.87891 -19.730468,0 0,-5.875 z m 28.949224,27.97657 11.48828,0 -14.52735,-18.1875 14.42578,-17.875 -11.17968,0 -8.5,11.07422 -8.5,-11.07422 -11.484379,0 14.417969,18.07812 -14.367188,17.98438 11.175778,0 8.5,-11.1836 z m 12.26171,-36.0625 0,36.0625 9.16797,0 0,-11.75 10.81641,0 c 7.9375,0 12.82812,-5.19922 12.82812,-12.15235 0,-7.21484 -4.78906,-12.16015 -12.51562,-12.16015 z m 23.59375,12.20703 c 0,2.21484 -1.44531,4.01953 -4.22265,4.01953 l -10.20313,0 0,-8.14063 10.20313,0 c 2.77734,0 4.22265,1.85547 4.22265,4.1211 m 22.30469,11.07812 3.55469,0 10.76953,12.77735 11.27734,0 -11.6914,-13.14063 c 5.92578,-1.28515 9.47656,-5.66797 9.47656,-11.28125 0,-6.90234 -4.78906,-11.64062 -12.51563,-11.64062 l -20.03906,0 0,36.0625 9.16797,0 z m 9.94141,-15.19922 c 2.78515,0 4.22656,1.69922 4.22656,3.71094 0,2.0625 -1.44141,3.65625 -4.22656,3.65625 l -9.94141,0 0,-7.36719 z m 46.46875,0 0,-8.08593 -29.36719,0 0,36.0625 29.36719,0 0,-8.08985 -20.19532,0 0,-6.13281 19.73047,0 0,-7.87891 -19.73047,0 0,-5.875 z m 22.71484,19.88672 -18.64453,0 0,8.08985 18.59375,0 c 7.83203,0 12.46875,-4.7461 12.46875,-11.69922 0,-6.53906 -4.07031,-10.35156 -11.23438,-10.35156 l -8.55078,0 c -1.90234,0 -3.24218,-1.1875 -3.24218,-2.98829 0,-1.80078 1.33984,-2.9375 3.24218,-2.9375 l 15.5625,0 3.55078,-8.08593 -19.01171,0 c -7.82813,0 -12.51563,4.78906 -12.51563,11.33203 0,6.80078 4.42969,10.71484 11.28516,10.71484 l 8.49609,0 c 1.91016,0 3.29688,1.1875 3.29688,2.98828 0,1.80078 -1.38672,2.9375 -3.29688,2.9375 m 33.02344,0 -18.64844,0 0,8.08985 18.59766,0 c 7.82812,0 12.46484,-4.7461 12.46484,-11.69922 0,-6.53906 -4.07031,-10.35156 -11.22656,-10.35156 l -8.55469,0 c -1.90625,0 -3.24609,-1.1875 -3.24609,-2.98829 0,-1.80078 1.33984,-2.9375 3.24609,-2.9375 l 15.55859,0 3.55079,-8.08593 -19.00782,0 c -7.83203,0 -12.51953,4.78906 -12.51953,11.33203 0,6.80078 4.4336,10.71484 11.28516,10.71484 l 8.5,0 c 1.90234,0 3.29687,1.1875 3.29687,2.98828 0,1.80078 -1.39453,2.9375 -3.29687,2.9375"
             id="path16" />
        </g>
        <path
           style="fill:#1775c5;fill-opacity:1;fill-rule:nonzero;stroke:none"
           d="m 727.03755,638.68923 3.97489,0 -5.94349,-13.91587 -4.59139,0 -5.96309,13.91587 3.89651,0 1.15312,-2.84286 6.32033,0 z m -6.26154,-5.8651 1.92791,-4.77077 1.949,4.77077 z m 17.77168,5.8651 3.07952,0 3.67794,-10.29822 0,10.29822 3.49856,0 0,-13.91587 -5.56514,0 -3.10213,8.86624 -3.12022,-8.86624 -5.62544,0 0,13.91587 3.49857,0 0,-10.29822 z m 23.93222,-10.79414 0,-3.12173 -11.33076,0 0,13.91587 11.33076,0 0,-3.12022 -7.7915,0 0,-2.36503 7.61364,0 0,-3.04334 -7.61364,0 0,-2.26555 z m 5.52746,5.8636 1.37169,0 4.15426,4.93054 4.35324,0 -4.51301,-5.06922 c 2.28665,-0.49743 3.65834,-2.18566 3.65834,-4.35323 0,-2.66349 -1.84952,-4.49342 -4.83107,-4.49342 l -7.73271,0 0,13.91587 3.53926,0 z m 3.83621,-5.8636 c 1.07324,0 1.63096,0.65569 1.63096,1.43048 0,0.79588 -0.55772,1.41238 -1.63096,1.41238 l -3.83621,0 0,-2.84286 z m 6.59919,10.79414 3.53926,0 0,-13.91587 -3.53926,0 z m 11.70911,0 0.27886,0 1.45007,-3.12022 -1.13353,0 c -2.22636,0 -3.53775,-1.35209 -3.53775,-3.73823 l 0,-0.19897 c 0,-2.08768 1.17272,-3.63724 3.47745,-3.63724 l 3.73824,0 0,-3.22121 -4.01559,0 c -4.37282,0 -6.71826,2.90316 -6.71826,6.85845 l 0,0.19897 c 0,4.27334 2.46452,6.85845 6.46051,6.85845 m 14.3123,0 3.9764,0 -5.945,-13.91587 -4.59139,0 -5.96309,13.91587 3.895,0 1.15313,-2.84286 6.32183,0 z m -6.26154,-5.8651 1.9264,-4.77077 1.94901,4.77077 z m 19.85785,5.8651 4.29294,0 0,-13.91587 -3.51816,0 0,8.62808 -5.54555,-8.62808 -4.47231,0 0,13.91587 3.51816,0 0,-8.94462 5.72492,8.94462"
           id="path18" />
      </g>
    </g>
  </g>
</svg>
